<?xml version="1.0" encoding="UTF-8"?>
<svg id="Layer_1" xmlns="http://www.w3.org/2000/svg" version="1.1" viewBox="0 0 500 500">
  <!-- Generator: Adobe Illustrator 29.4.0, SVG Export Plug-In . SVG Version: 2.1.0 Build 152)  -->
  <defs>
    <style>
      .st0 {
        fill: #2d2d2d;
      }
    </style>
  </defs>
  <circle class="st0" cx="281" cy="66.5" r="61.5"/>
  <circle class="st0" cx="440.9" cy="232.5" r="61.5"/>
  <g>
    <path class="st0" d="M72,26.5c3.1,50.7,13.8,98.4,36.9,142.9,21.5,44.6,52.3,87.6,93.8,127.6,40,40,84.5,70.7,130.6,90.7,46.1,21.5,95.3,32.3,146,35.4v41.5c-56.9-1.5-113.7-15.4-164.5-36.9-50.7-23.1-98.4-55.3-142.9-99.9-44.6-44.6-78.4-90.7-101.4-139.9S33.6,83.4,32.1,26.5h41.5-1.5Z"/>
    <path class="st0" d="M500.8,487.6h-24.6c-61.5-3.1-121.4-16.9-173.7-40-52.3-23.1-103-58.4-149.1-104.5-46.1-46.1-83-95.3-107.6-146C21.3,146.4,7.5,86.5,5.9,28.1V3.5h87.6v21.5c3.1,47.6,15.4,92.2,35.4,135.3,20,41.5,50.7,83,89.1,119.9,38.4,38.4,79.9,66.1,123,86.1,43,20,89.1,30.7,138.3,33.8h21.5s0,87.6,0,87.6Z"/>
  </g>
</svg>