<?xml version="1.0" encoding="UTF-8"?>
<svg id="Layer_1" xmlns="http://www.w3.org/2000/svg" version="1.1" viewBox="0 0 255 44.5">
  <!-- Generator: Adobe Illustrator 29.4.0, SVG Export Plug-In . SVG Version: 2.1.0 Build 152)  -->
  <defs>
    <style>
      .st0 {
        fill: #fff;
      }

      .st1 {
        fill: #e7f0aa;
      }
    </style>
  </defs>
  <g>
    <path class="st0" d="M56.8,43c-2-1-3.4-2.4-4.4-4.4s-1.5-4.4-1.5-7.4v-5c0-2.9.5-5.3,1.5-7.3,1-1.9,2.4-3.4,4.4-4.4,1.9-1,4.4-1.5,7.3-1.5s3.2.2,4.5.5c1.4.4,2.6.9,3.7,1.6,1.1.7,2,1.6,2.8,2.7l-3.1,2.8c-1-1.2-2.2-2.2-3.5-2.8-1.3-.6-2.7-.9-4.3-.9-3,0-5.3.8-6.8,2.3s-2.2,3.8-2.2,6.9v5c0,3.1.8,5.4,2.3,7,1.5,1.5,3.8,2.3,6.8,2.3s3.2-.3,4.5-.9c1.4-.6,2.6-1.5,3.7-2.7l2.7,2.7c-.8,1.1-1.7,2-2.8,2.7s-2.3,1.2-3.7,1.6c-1.4.4-2.9.5-4.5.5-2.9,0-5.4-.5-7.3-1.5v.2Z"/>
    <path class="st0" d="M85.2,32.1c0,2.7.7,4.8,2.1,6.2,1.4,1.5,3.3,2.2,5.9,2.2s4.5-.7,5.8-2,2.1-3.3,2.1-5.7l.4,6.4c-.7,1.5-2,2.8-3.7,3.8s-3.8,1.5-6.3,1.5-6-1.1-7.8-3.2c-1.8-2.2-2.7-5.2-2.7-9.1V13.6h4.2v18.5ZM101.1,13.6h4.2v30.4h-4.2V13.6Z"/>
    <path class="st0" d="M118.6,36c0,1.3.3,2.3,1,3,.6.7,1.5,1.1,2.7,1.1h2.8v3.9h-3.5c-2.3,0-4-.7-5.3-2.1s-1.9-3.4-1.9-5.9V1.4h4.2s0,34.6,0,34.6Z"/>
    <path class="st0" d="M129.4,13.6h13.7v3.6h-13.7v-3.6ZM134.3,42.1c-1.1-1.4-1.7-3.4-1.7-6V4.7h4.2v31.4c0,1.3.3,2.3.9,3s1.5,1.1,2.6,1.1h2.9v3.9h-3.5c-2.5,0-4.3-.7-5.4-2Z"/>
    <path class="st0" d="M149,13.6h15.2v3.6h-15.2v-3.6ZM152.2,9.4c0-2.7.6-4.7,1.7-6,1.2-1.3,2.9-2,5.3-2h5v3.9h-4.3c-1.2,0-2,.3-2.6,1s-.9,1.7-.9,3.1v34.6h-4.2V9.4Z"/>
    <path class="st0" d="M170.6,42c-2-1.6-2.9-4-2.9-6.9s.9-5.1,2.7-6.7,4.3-2.4,7.6-2.4h10.1l.4,3.9h-10.5c-2,0-3.5.4-4.5,1.3-1.1.9-1.6,2.1-1.6,3.8s.7,3.1,2,4,3.2,1.4,5.7,1.4,4.6-.3,6.1-.8,2.2-1.3,2.2-2.2l.6,4c-.6.6-1.4,1.2-2.3,1.6-.9.5-2,.8-3.3,1s-2.5.4-3.9.4c-3.6,0-6.3-.8-8.3-2.5h-.1ZM187.8,24.7c0-2.5-.7-4.4-2-5.7-1.3-1.4-3.2-2-5.6-2s-2.9.2-4.2.7-2.6,1.1-3.7,2l-3.1-2.1c1.2-1.4,2.7-2.5,4.6-3.2,1.9-.8,4-1.2,6.3-1.2s4.7.4,6.5,1.3c1.8.9,3.2,2.2,4.1,3.9.9,1.7,1.4,3.7,1.4,6.1v19.5h-4.2v-19.3h-.1Z"/>
    <path class="st0" d="M206.1,43c-2-1-3.4-2.4-4.4-4.4s-1.5-4.4-1.5-7.4v-5c0-2.9.5-5.3,1.5-7.3s2.4-3.4,4.4-4.4,4.4-1.5,7.3-1.5,3.2.2,4.5.5c1.4.4,2.6.9,3.7,1.6,1.1.7,2,1.6,2.8,2.7l-3.1,2.8c-1-1.2-2.2-2.2-3.5-2.8s-2.7-.9-4.3-.9c-3,0-5.3.8-6.8,2.3s-2.2,3.8-2.2,6.9v5c0,3.1.8,5.4,2.3,7,1.5,1.5,3.8,2.3,6.8,2.3s3.2-.3,4.5-.9,2.6-1.5,3.7-2.7l2.7,2.7c-.8,1.1-1.7,2-2.8,2.7s-2.3,1.2-3.7,1.6-2.9.5-4.5.5c-2.9,0-5.4-.5-7.3-1.5v.2Z"/>
    <path class="st0" d="M236.2,42.8c-2-1.1-3.5-2.6-4.6-4.7-1-2-1.6-4.5-1.6-7.4v-3.4c0-3,.5-5.6,1.5-7.7s2.5-3.8,4.4-4.9,4.2-1.7,6.9-1.7,4.7.5,6.5,1.6,3.2,2.7,4.1,4.8c.9,2.1,1.4,4.6,1.4,7.6v3.5h-22v-3.8h18v-.3c0-3-.7-5.3-2.1-7-1.4-1.7-3.4-2.5-6-2.5s-5,.9-6.6,2.6c-1.5,1.7-2.3,4.2-2.3,7.4v3.9c0,3,.8,5.4,2.5,7.1s4,2.5,6.9,2.5,2.8-.3,4.2-.9,2.6-1.4,3.7-2.5l2.9,2.8c-1.5,1.4-3.2,2.6-5,3.4-1.9.8-3.8,1.2-5.7,1.2-2.8,0-5.2-.5-7.2-1.6h.1Z"/>
  </g>
  <circle class="st1" cx="19.6" cy="17.1" r="4"/>
  <circle class="st1" cx="30" cy="27.9" r="4"/>
  <g>
    <path class="st1" d="M6,14.5c.2,3.3.9,6.4,2.4,9.3,1.4,2.9,3.4,5.7,6.1,8.3,2.6,2.6,5.5,4.6,8.5,5.9,3,1.4,6.2,2.1,9.5,2.3v2.7c-3.7,0-7.4-1-10.7-2.4-3.3-1.5-6.4-3.6-9.3-6.5s-5.1-5.9-6.6-9.1-2.4-6.8-2.5-10.5h2.7,0Z"/>
    <path class="st1" d="M33.9,44.5h-1.6c-4-.2-7.9-1.1-11.3-2.6s-6.7-3.8-9.7-6.8-5.4-6.2-7-9.5-2.5-7.2-2.6-11v-1.6h5.7v1.4c.2,3.1,1,6,2.3,8.8,1.3,2.7,3.3,5.4,5.8,7.8,2.5,2.5,5.2,4.3,8,5.6s5.8,2,9,2.2h1.4s0,5.7,0,5.7Z"/>
  </g>
</svg>